M48
;DRILL file {KiCad (6.0.0-rc1-dev-472-g4eece522d)} date 10/16/18 14:42:52
;FORMAT={-:-/ absolute / metric / decimal}
FMAT,2
METRIC,TZ
T1C0.300
T2C0.800
T3C0.850
T4C0.900
T5C1.200
T6C1.300
T7C2.200
%
G90
G05
M71
T1
X192.7Y-148.1
X193.Y-128.
X193.Y-138.
X193.1Y-156.6
X193.5Y-150.6
X193.5Y-160.8
X193.5Y-165.6
X196.7Y-128.
X196.8Y-137.8
X196.8Y-148.
X197.5Y-150.7
X199.Y-128.
X199.Y-159.8
X199.2Y-164.4
X202.6Y-128.
X202.9Y-147.7
X203.5Y-129.1
X203.7Y-130.8
X203.9Y-132.8
X203.9Y-153.3
X204.Y-127.5
X204.8Y-134.7
X204.8Y-170.4
X204.869Y-163.956
X204.979Y-162.257
X205.1Y-127.5
X205.15Y-129.1
X205.2Y-166.4
X205.9Y-174.5
X205.991Y-157.258
X206.05Y-140.805
X206.2Y-133.5
X206.4Y-127.5
X206.4Y-130.9
X206.45Y-129.1
X207.028Y-153.2
X207.8Y-127.5
X207.85Y-129.1
X207.853Y-141.95
X208.265Y-167.903
X208.429Y-156.654
X208.556Y-133.262
X208.757Y-139.134
X208.832Y-164.042
X208.85Y-140.722
X209.3Y-127.5
X209.35Y-129.1
X209.4Y-131.4
X209.464Y-163.267
X209.595Y-161.264
X209.801Y-157.427
X209.885Y-138.59
X209.96Y-156.262
X210.702Y-139.171
X210.8Y-176.
X210.9Y-127.5
X210.9Y-181.9
X210.95Y-129.1
X210.974Y-166.07
X211.046Y-130.243
X211.197Y-151.467
X211.254Y-139.994
X211.442Y-142.135
X211.585Y-171.067
X211.765Y-168.778
X211.813Y-167.246
X212.187Y-161.2
X212.252Y-164.913
X212.312Y-160.09
X212.336Y-155.989
X213.Y-130.1
X213.03Y-140.538
X213.045Y-160.674
X213.1Y-127.5
X213.115Y-163.196
X213.675Y-158.037
X213.771Y-163.965
X213.966Y-146.553
X214.224Y-131.542
X214.279Y-165.101
X214.4Y-127.5
X214.491Y-134.026
X214.627Y-163.469
X214.779Y-146.066
X214.8Y-177.3
X214.936Y-162.559
X215.357Y-170.698
X215.454Y-163.923
X215.715Y-143.609
X215.725Y-145.828
X215.85Y-127.55
X215.85Y-130.05
X215.862Y-156.249
X215.909Y-138.503
X216.037Y-140.394
X216.1Y-181.9
X216.281Y-144.467
X216.465Y-135.143
X217.012Y-170.133
X217.043Y-167.946
X217.464Y-159.648
X217.541Y-140.784
X217.955Y-175.75
X218.2Y-144.3
X218.345Y-160.835
X218.5Y-132.3
X218.55Y-127.55
X218.55Y-130.05
X218.704Y-148.645
X218.85Y-180.294
X219.204Y-161.417
X219.333Y-149.448
X220.04Y-150.208
X220.062Y-160.113
X220.557Y-167.69
X220.65Y-168.878
X220.7Y-177.
X220.789Y-147.3
X220.9Y-142.8
X221.155Y-169.918
X221.25Y-127.55
X221.25Y-130.05
X221.25Y-132.75
X221.25Y-138.15
X221.25Y-140.85
X221.25Y-136.296
X221.3Y-134.7
X222.06Y-165.556
X222.558Y-171.623
X222.558Y-172.623
X222.68Y-174.215
X223.222Y-166.052
X223.492Y-156.104
X223.582Y-165.015
X223.95Y-127.55
X223.95Y-130.05
X223.95Y-132.75
X223.95Y-135.45
X223.95Y-138.15
X223.95Y-140.85
X223.95Y-143.55
X224.902Y-156.51
X226.081Y-156.988
X226.273Y-152.7
X226.65Y-127.55
X226.65Y-130.05
X226.65Y-132.75
X226.65Y-135.45
X226.65Y-138.15
X226.65Y-140.85
X227.Y-171.6
X227.2Y-174.5
X227.7Y-167.6
X227.863Y-152.394
X229.052Y-152.684
X229.312Y-178.675
X229.35Y-127.55
X229.35Y-130.05
X229.35Y-132.75
X229.35Y-135.45
X229.35Y-138.15
X229.35Y-140.85
X230.146Y-160.769
X230.791Y-152.7
X231.85Y-148.068
X232.05Y-127.55
X232.05Y-130.05
X232.05Y-132.75
X232.05Y-135.45
X232.05Y-138.15
X232.05Y-140.85
X232.05Y-143.55
X233.087Y-152.929
X233.3Y-145.4
X233.435Y-181.51
X234.3Y-178.
X234.75Y-127.55
X234.75Y-130.05
X234.75Y-132.75
X234.75Y-135.45
X234.75Y-138.15
X234.75Y-140.85
X234.75Y-143.55
X234.998Y-165.899
X235.786Y-170.882
X235.85Y-150.593
X235.861Y-166.715
X235.861Y-171.882
X236.008Y-149.39
X236.1Y-145.6
X236.381Y-167.702
X236.397Y-169.355
X236.5Y-158.9
X236.836Y-173.639
X237.45Y-127.55
X237.45Y-130.05
X237.45Y-132.75
X237.45Y-135.45
X237.45Y-138.15
X237.45Y-140.85
X237.45Y-143.55
X237.5Y-168.6
X237.7Y-170.7
X237.9Y-160.5
X238.039Y-173.171
X238.4Y-178.9
X238.569Y-145.893
X239.2Y-162.4
X239.4Y-157.8
X239.58Y-146.066
X239.7Y-181.9
X240.15Y-127.55
X240.15Y-130.05
X240.15Y-132.75
X240.15Y-135.45
X240.15Y-138.15
X240.15Y-140.85
X240.15Y-143.55
X240.85Y-148.183
X241.2Y-149.7
X241.4Y-159.9
X241.6Y-163.9
X241.8Y-179.
X242.6Y-173.6
X242.7Y-152.3
X242.85Y-127.55
X242.85Y-130.05
X242.85Y-132.75
X242.85Y-135.45
X242.85Y-138.15
X242.85Y-140.85
X242.85Y-146.25
X243.4Y-143.8
X243.5Y-162.5
X243.6Y-181.8
X245.2Y-155.2
X245.3Y-143.
X245.55Y-127.55
X245.55Y-130.05
X245.55Y-132.75
X245.55Y-135.45
X245.55Y-138.15
X245.55Y-146.25
X245.9Y-141.5
X246.4Y-149.7
X246.4Y-182.4
X246.636Y-176.312
X246.815Y-163.085
X247.304Y-160.949
X247.382Y-164.29
X247.5Y-152.7
X247.744Y-165.43
X248.25Y-127.55
X248.25Y-130.05
X248.25Y-132.75
X248.25Y-135.45
X248.25Y-140.85
X248.25Y-146.25
X248.7Y-143.9
X248.78Y-176.049
X249.354Y-149.309
X249.6Y-136.7
X249.9Y-158.1
X250.3Y-143.2
X250.5Y-132.8
X250.6Y-154.1
X250.661Y-170.415
X250.699Y-171.755
X250.818Y-173.183
X250.9Y-151.2
X250.95Y-127.55
X250.95Y-130.05
X250.95Y-135.45
X250.95Y-138.15
X251.3Y-181.7
X251.6Y-146.5
X251.7Y-161.2
X253.03Y-135.731
X253.2Y-168.6
X253.521Y-151.857
X253.525Y-156.616
X253.65Y-127.35
X253.65Y-130.05
X253.65Y-143.55
X254.1Y-141.6
X254.3Y-138.4
X254.6Y-135.9
X255.5Y-177.3
X256.Y-152.7
X256.35Y-127.35
X256.35Y-130.05
X256.35Y-138.15
X256.35Y-140.85
X256.35Y-143.55
X256.4Y-136.1
X257.Y-169.8
X257.2Y-157.
X257.6Y-145.8
X257.9Y-148.2
X258.7Y-137.8
X258.9Y-136.3
X259.05Y-127.35
X259.05Y-130.05
X259.05Y-132.75
X259.05Y-140.85
X259.2Y-144.4
X259.6Y-174.1
X260.5Y-152.8
X262.3Y-169.6
X262.4Y-164.3
X262.5Y-147.9
X262.5Y-156.7
X211.6Y-136.1
X211.6Y-136.9
X211.6Y-137.7
X212.4Y-136.1
X212.4Y-136.9
X212.4Y-137.7
X213.2Y-136.1
X213.2Y-136.9
X213.2Y-137.7
T2
X200.5Y-129.5
X200.5Y-131.5
X200.5Y-133.5
X200.5Y-135.5
X194.5Y-129.5
X194.5Y-131.5
X194.5Y-133.5
X194.5Y-135.5
X194.5Y-140.5
X194.5Y-142.5
X194.5Y-144.5
X194.5Y-146.5
X200.5Y-140.5
X200.5Y-142.5
X200.5Y-144.5
X200.5Y-146.5
T3
X225.5Y-179.9
X230.5Y-179.9
T4
X254.Y-129.
X262.Y-137.46
X262.Y-140.
X262.Y-142.54
X198.602Y-175.102
X200.398Y-176.898
X202.Y-153.8
X202.Y-156.34
X202.Y-158.88
X202.Y-161.42
X202.Y-163.96
X202.Y-166.5
X262.Y-128.96
X262.Y-131.5
X262.Y-134.04
T5
X196.Y-158.5
X196.Y-162.5
X196.Y-166.5
T6
X224.5Y-182.6
X231.5Y-182.6
T7
X254.Y-172.
X237.Y-155.
X254.Y-120.5
X219.Y-155.
X196.Y-154.25
X196.Y-170.75
X202.Y-172.
X202.Y-120.5
X228.Y-159.5
X228.Y-143.
T0
M30
